<?xml version="1.0" encoding="UTF-8" standalone="no"?><!DOCTYPE svg PUBLIC "-//W3C//DTD SVG 1.1//EN" "http://www.w3.org/Graphics/SVG/1.1/DTD/svg11.dtd"><svg width="100%" height="100%" viewBox="0 0 79 93" version="1.1" xmlns="http://www.w3.org/2000/svg" xmlns:xlink="http://www.w3.org/1999/xlink" xml:space="preserve" xmlns:serif="http://www.serif.com/" style="fill-rule:evenodd;clip-rule:evenodd;stroke-linejoin:round;stroke-miterlimit:2;"><path d="M43.068,38.016c-0.257,-1.274 -1.478,-2.65 -1.682,-3.414c-0.069,-0.257 -1.428,-5.556 -1.428,-5.556c0,0 -0.543,-11.573 -0.781,-11.844c0,0 -1.598,3.159 -2.684,6.115c-0.653,1.776 -1.564,5.487 -1.666,6.354c-0.101,0.866 3.725,6.332 3.756,6.54c0.05,0.358 -0.357,2.825 0.355,3.08c0.714,0.254 2.804,2.085 3.211,1.728c0.408,-0.357 1.172,-1.728 0.919,-3.003Z" style="fill:#a86725;fill-rule:nonzero;"/><path d="M46.243,78.564c-0.067,-0.849 -2.922,-1.902 -3.635,-2.481c-0.895,-0.726 -1.256,-2.582 -1.445,-3.383l-4.874,1.757c0.44,1.059 -0.546,3.174 -0.102,3.937c0.617,1.063 2.746,1.076 4.09,1.224c1.389,0.152 6.12,0.857 5.966,-1.054Z" style="fill:#2b2b2b;fill-rule:nonzero;"/><path d="M3.416,69.53c-1.195,1.286 -4.194,3.391 -3.227,5.502c1.111,2.424 4.333,0.315 5.295,-1.202c0.775,-1.224 0.946,-2.827 2.06,-3.802c-2.202,1.161 -4.128,-0.498 -4.128,-0.498Z" style="fill:#2b2b2b;fill-rule:nonzero;"/><path d="M42.437,75.031c0,0 -4.252,1.656 -6.422,1.464c-1.186,-0.106 -2.817,-15.599 -2.956,-18.587c-0.134,-2.994 -7.951,-12.898 -9.715,-11.944c-1.766,0.951 -8,10.393 -9.631,12.436c-1.644,2.068 -5.693,13.339 -7.87,13.744c-2.172,0.408 -3.53,-1.765 -3.53,-1.765c0,0 1.117,-4.166 2.038,-7.205c1.047,-3.442 2.671,-4.992 3.988,-8.398c1.496,-3.923 6.441,-19.025 6.441,-19.025c0,0 4.368,3.54 9.378,3.638c7.067,0.133 7.952,-1.733 8.612,-0.967c2.401,2.765 6.678,15.542 7.086,17.854c0.408,2.308 2.581,18.755 2.581,18.755Z" style="fill:#6280f6;fill-rule:nonzero;"/><path d="M13.04,59.476c-1.891,3.479 -5.276,12.31 -7.197,12.668c-2.172,0.408 -3.53,-1.765 -3.53,-1.765c3.734,-13.929 3.336,-9.011 5.842,-15.143c0.053,-0.13 0.918,6.679 4.885,4.24Z" style="fill:#4c71cf;fill-rule:nonzero;"/><path d="M30.139,10.542c-0.66,0.06 -6.576,0.646 -8.97,2.378c-3.189,2.308 -2.923,12.895 -3.942,17.329c-1.019,4.434 -4.467,6.969 -3.669,7.611c0.798,0.642 1.968,1.785 6.455,2.921c4.96,1.258 11.552,0.273 14.407,-1.155c0.543,-0.272 -2.786,-1.563 -0.747,-6.659c2.038,-5.097 6.438,-15.643 5.52,-16.458c-0.917,-0.816 -2.089,-2.196 -3.754,-3.724c-1.819,-1.671 -1.937,-2.549 -5.3,-2.243Z" style="fill:#ffae00;fill-rule:nonzero;"/><path d="M30.41,6.159c0,0 -0.917,-0.408 -1.325,0.441c-0.313,0.654 -0.374,1.589 0.442,2.277c0.314,0.265 0.068,1.903 0.272,2.514c0.204,0.612 1.94,3.486 3.534,3.602c1.867,0.136 2.191,-1.241 2.446,-1.393c0.255,-0.154 1.189,-1.121 1.835,-2.141c1.15,-1.817 0.475,-2.513 0.985,-4.484c0.27,-1.047 0.642,-3.246 -2.209,-3.976c-5.436,-1.393 -5.98,3.16 -5.98,3.16Z" style="fill:#c4782b;fill-rule:nonzero;"/><path d="M38.226,2.523c-1.022,-0.851 -4.641,-2.08 -7.645,-0.714c-2.392,1.089 -1.733,5.709 -1.733,5.709c0,0 0.592,-1.366 1.315,-1.193c0.723,0.173 0.066,2.379 0.213,2.891c0.069,0.239 0.947,0.479 1.02,0.306c0.519,-1.217 1.668,-3.237 2.343,-2.989c0.647,0.238 2.567,0.941 3.908,-0.035c0.408,-0.296 0.506,1.065 0.715,1.529c0.439,-1.042 1.29,-4.314 -0.136,-5.504Z" style="fill:#80390f;fill-rule:nonzero;"/><path d="M37.478,0.756c-3.313,-0.866 -5.063,-0.918 -5.981,-0.509c-0.916,0.407 -2.478,1.631 -3.194,2.548c-0.713,0.918 -1.563,1.546 -0.339,2.005c0.943,0.353 2.646,0.491 3.125,1.121c0.646,0.85 1.623,1.764 4.708,1.821c3.264,0.062 2.921,0.391 3.447,-0.19c0.527,-0.582 1.548,-5.929 -1.766,-6.796Z" style="fill:#ff4700;fill-rule:nonzero;"/><path d="M41.588,38.42c-0.552,-0.586 -2.344,-2.922 -4.586,-1.037c-1.394,1.173 -2.719,2.616 1.631,9.548l0.356,-1.886c-3.669,-5.351 -1.274,-8.103 0.918,-6.778c0.772,0.467 3.027,3.237 3.363,4.688c0.867,-0.152 0.051,-2.701 -1.682,-4.535Z" style="fill:#2b2b2b;fill-rule:nonzero;"/><path d="M42.709,41.733c-1.184,0.098 -4.725,3.053 -4.331,4.485c0.395,1.431 5.14,10.63 5.963,11.025c0.823,0.395 6.22,-2.286 5.912,-3.5c-0.309,-1.213 -6.359,-12.109 -7.544,-12.01Z" style="fill:#ff4700;fill-rule:nonzero;"/><path d="M53.039,57.821l-1.053,1.326c1.256,2.309 3.262,1.052 4.349,2.14c0.039,-1.692 -2.109,-4.167 -3.296,-3.466Z" style="fill:#80390f;fill-rule:nonzero;"/><path d="M63.394,66.507c-2.845,-2.49 -4.986,-3.456 -9.232,-3.061c-0.494,0.046 -0.581,-2.862 -1.135,-3.11c-0.084,-0.037 -0.174,-0.067 -0.264,-0.096c0.728,-0.786 0.524,-1.849 0.708,-3.557c0.282,-2.6 -1.52,-4.219 -1.927,-4.231c-1.678,-0.049 -3.261,-3.941 -4.62,-3.363c-0.819,0.348 -1.875,0.954 -2.073,1.597c-0.198,0.641 0.574,3.639 0.476,4.824c-0.099,1.184 -0.409,1.631 -0.952,1.019c-0.66,-0.741 -0.679,-0.781 -0.951,-1.121c-0.355,-0.444 -0.664,0.683 -0.664,0.831c0,0.148 0.234,2.415 1.02,3.026c0.786,0.61 2.124,1.962 2.459,2.11c-0.146,0.37 -0.317,4.362 -0.317,4.362c-0.402,1.498 -1.41,2.661 -2.126,4.374c-1.585,3.792 -2.221,7.898 -5.255,10.19c-0.388,0.294 -1.191,0.096 -1.458,0.423c-1.136,1.382 -1.125,3.831 2.616,2.666c3.01,-0.938 5.035,-5.974 5.43,-5.776c0.394,0.197 1.807,1.511 3.703,1.53c-1.629,1.777 -1.977,3.141 -4.69,7.751c-0.602,1.02 -3.074,1.143 -4.148,1.776c-1.477,0.872 -0.747,2.586 2.667,3.555c3.75,1.063 4.471,-2.79 6.713,-6.22c1.774,-2.714 5.818,-5.34 9.479,-4.986c5.131,0.497 2.714,5.282 1.505,7.503c-0.795,1.46 -0.604,3.334 2.098,2.863c2.3,-0.4 1.745,-4.995 2.024,-6.861c0.445,-2.962 6.023,-11.799 -1.086,-18.018Z" style="fill:#9c4612;fill-rule:nonzero;"/><path d="M47.433,49.768c-0.2,0.613 -1.248,0.442 -1.664,0.442c-0.417,0 -0.189,-0.582 -0.091,-0.754c0.328,-0.571 0.693,-0.647 1.109,-0.647c0.418,0 0.707,0.771 0.646,0.959Z" style="fill:#2b2b2b;fill-rule:nonzero;"/><path d="M51.136,59.588l-1.223,0.848c-0.089,3.023 4.943,1.244 6.252,2.243c-0.739,-1.721 -3.738,-5.266 -5.029,-3.091Z" style="fill:#ad4e14;fill-rule:nonzero;"/><path d="M73.711,67.148c-1.187,1.569 -1.32,4.28 -2.271,5.974c-0.756,1.347 -1.807,2.126 -3.406,1.629c-0.896,-0.279 -1.139,-1.405 -2.717,-1.418c-1.578,-0.013 -1.527,1.911 -1.527,1.911c1.646,2.453 6.324,3.375 8.238,0.944c2.517,-3.192 1.925,-9.234 6.324,-10.866c-0.198,-1.432 -3.922,0.875 -4.641,1.826Z" style="fill:#ad4e14;fill-rule:nonzero;"/><path d="M54.602,64.378c-2.296,0.647 -4.617,1.866 -5.27,3.506c5.542,-5.069 12.27,-2.895 15.237,1.334c-1.949,-4.16 -6.348,-5.859 -9.967,-4.84Z" style="fill:#ad4e14;fill-rule:nonzero;"/><path d="M52.564,75.522c-2.551,1.581 -5.328,5.602 -6.49,8.353c5.335,-8.012 9.158,-9.248 9.139,-9.236c-0.183,-0.074 -2.649,0.883 -2.649,0.883Z" style="fill:#ad4e14;fill-rule:nonzero;"/><path d="M19.147,14.466c-0.917,1.632 -0.272,10.72 1.563,14.747c1.836,4.025 10.449,8.311 10.602,8.82c0.152,0.51 0.669,2.545 1.206,2.748c0.534,0.205 1.317,0.641 1.928,0.667c0.61,0.025 1.882,0.72 2.046,0.731c0.599,0.037 1.062,0.094 0.943,-0.561c-0.069,-0.374 -0.789,-0.437 -1.045,-0.972c-0.254,-0.536 -0.39,-1.593 -0.39,-1.593c0,0 0.516,0.644 0.785,1.036c0.374,0.543 0.964,-0.328 0.688,-0.879c-0.241,-0.484 -0.496,-1.393 -1.031,-1.674c-0.536,-0.279 -1.843,-1.134 -2.403,-1.389c-0.561,-0.254 -7.485,-7.002 -8.164,-9.109c-0.68,-2.108 1.02,-12.776 -1.563,-14.202c-1.801,-0.996 -4.247,0 -5.165,1.63Z" style="fill:#c4782b;fill-rule:nonzero;"/><path d="M41.195,39.798c0.349,-0.683 -0.484,-1.859 -0.712,-0.881c-0.008,0.133 0.15,-0.637 -0.137,-0.789c-0.272,-0.143 -0.514,-0.181 -0.713,0.395c0.044,-0.425 -0.208,-0.494 -0.32,-0.486c-0.25,0.019 -0.493,0.705 -0.394,0.957c0.144,0.364 2.753,2.877 3.127,1.563c0.096,-0.338 0.189,-0.95 -0.06,-1.275c-0.191,-0.249 -0.645,0.015 -0.791,0.516Zm1.108,-3.005c-0.088,0.663 -0.287,0.749 -0.432,1.067c-0.205,0.451 0.098,0.876 -0.236,1.087c-0.472,0.302 -0.834,-0.607 -0.637,-1.077c0.385,-0.918 -0.773,-1.456 -0.274,-2.018c0.7,-0.783 1.679,0.184 1.579,0.941Z" style="fill:#a86725;fill-rule:nonzero;"/></svg>